<svg width="265" height="290" viewBox="0 0 265 290" fill="none" xmlns="http://www.w3.org/2000/svg">
<path fill-rule="evenodd" clip-rule="evenodd" d="M65.1594 31C65.1594 13.8792 79.0386 0 96.1594 0C113.28 0 127.159 13.8792 127.159 31V115.689C130.428 115.235 133.766 115 137.159 115H192.159C231.924 115 264.159 147.236 264.159 187V218C264.159 257.764 231.924 290 192.159 290H137.159C117.252 290 99.2314 281.921 86.198 268.862C85.9861 268.662 85.7764 268.458 85.5688 268.25L9.07969 191.761C-3.02656 179.655 -3.02657 160.027 9.07969 147.92C21.1859 135.814 40.8141 135.814 52.9203 147.92L65.1594 160.159V31Z" fill="#84BF42"/>
</svg>
